<svg xmlns="http://www.w3.org/2000/svg" viewBox="0 0 1200 1200" width="1200" height="1200" preserveAspectRatio="xMinYMin meet" style="width: 100%; height: 100%; transform: translate3d(0px, 0px, 0px);"><defs><clipPath id="__lottie_element_2"><rect width="1200" height="1200" x="0" y="0"></rect></clipPath></defs><g clip-path="url(#__lottie_element_2)"><g transform="matrix(1,0,0,1,221.26400756835938,152.510986328125)" opacity="1" style="display: block;"><g opacity="1" transform="matrix(1,0,0,1,433.9930114746094,455.468994140625)"><path fill="rgb(213,222,255)" fill-opacity="1" d=" M-252.77999877929688,448.60400390625 C-252.77999877929688,448.60400390625 -433.7430114746094,-448.60400390625 -433.7430114746094,-448.60400390625 C-433.7430114746094,-448.60400390625 433.7430114746094,-156.71800231933594 433.7430114746094,-156.71800231933594 C433.7430114746094,-156.71800231933594 -252.77999877929688,448.60400390625 -252.77999877929688,448.60400390625z"></path></g><g opacity="1" transform="matrix(1,0,0,1,431.76800537109375,0.30000001192092896)"><path fill="rgb(27,59,134)" fill-opacity="1" d=" M-0.0949999988079071,0.0020000000949949026 C-0.0949999988079071,-0.023000000044703484 -0.0560000017285347,-0.04500000178813934 -0.004000000189989805,-0.04800000041723251 C0.04800000041723251,-0.05000000074505806 0.09200000017881393,-0.032999999821186066 0.09200000017881393,-0.006000000052154064 C0.0949999988079071,0.01899999938905239 0.05299999937415123,0.041999999433755875 0.0010000000474974513,0.04399999976158142 C-0.050999999046325684,0.04899999871850014 -0.09300000220537186,0.028999999165534973 -0.0949999988079071,0.0020000000949949026z"></path></g></g><g transform="matrix(1,0,0,1,652.427978515625,279.15899658203125)" opacity="1" style="display: block;"><g opacity="1" transform="matrix(1,0,0,1,122.02899932861328,106.70700073242188)"><path fill="rgb(255,255,255)" fill-opacity="1" d=" M-60.36399841308594,-4.025000095367432 C-55.80500030517578,3.7209999561309814 -42.57699966430664,25.34600067138672 -42.57699966430664,25.34600067138672 C-42.57699966430664,25.34600067138672 21.125,-65.92900085449219 24.954999923706055,-71.43000030517578 C28.784000396728516,-76.93299865722656 28.16200065612793,-93.0530014038086 32.35300064086914,-92.87200164794922 C36.54600143432617,-92.68800354003906 112.73799896240234,-94.3290023803711 112.73799896240234,-87.03800201416016 C112.73799896240234,-79.74700164794922 68.4469985961914,-69.53700256347656 59.69599914550781,-63.70600128173828 C50.948001861572266,-57.87200164794922 -23.05900001525879,94.3280029296875 -51.858001708984375,94.3280029296875 C-80.65699768066406,94.3280029296875 -107.99800109863281,57.507999420166016 -110.36799621582031,47.8489990234375 C-112.73699951171875,38.1879997253418 -97.85399627685547,-67.74299621582031 -60.36399841308594,-4.025000095367432z"></path></g><g opacity="1" transform="matrix(1,0,0,1,181.10899353027344,56.55799865722656)"><path stroke-linecap="round" stroke-linejoin="round" fill-opacity="0" stroke="rgb(27,59,134)" stroke-opacity="1" stroke-width="4.451" d=" M-5.564000129699707,-52.106998443603516 C17.95599937438965,-51.928001403808594 48.819000244140625,-50.90599822998047 48.819000244140625,-46.26599884033203 C48.819000244140625,-38.974998474121094 4.52400016784668,-28.768999099731445 -4.223999977111816,-22.934999465942383 C-8.368000030517578,-20.172000885009766 -27.142000198364258,15.407999992370605 -48.819000244140625,52.106998443603516"></path></g><g opacity="1" transform="matrix(1,0,0,1,75.21499633789062,101.62000274658203)"><path stroke-linecap="round" stroke-linejoin="round" fill-opacity="0" stroke="rgb(27,59,134)" stroke-opacity="1" stroke-width="4.451" d=" M12.791000366210938,73.16699981689453 C3.953000068664551,83.53399658203125 -3.933000087738037,90.03800201416016 -9.883000373840332,90.03800201416016 C-38.685001373291016,90.03800201416016 -66.0260009765625,53.215999603271484 -68.39399719238281,43.55500030517578 C-70.76399993896484,33.89400100708008 -55.88100051879883,-72.03399658203125 -18.391000747680664,-8.315999984741211 C-13.835000038146973,-0.5699999928474426 -0.6039999723434448,21.05500030517578 -0.6039999723434448,21.05500030517578 C-0.6039999723434448,21.05500030517578 63.09700012207031,-70.22100067138672 66.927001953125,-75.7239990234375 C69.04499816894531,-78.76599884033203 69.802001953125,-85.05500030517578 70.76499938964844,-90.03800201416016"></path></g></g><g transform="matrix(1,0,0,1,581.10400390625,254.1800079345703)" opacity="1" style="display: block;"><g opacity="1" transform="matrix(1,0,0,1,76.05899810791016,82.2979965209961)"><path fill="rgb(70,219,200)" fill-opacity="1" d=" M-17.648000717163086,-53.72999954223633 C21.336000442504883,-71.0250015258789 63.058998107910156,20.48699951171875 64.06900024414062,40.207000732421875 C52.58399963378906,48.64400100708008 -0.4699999988079071,71.0250015258789 -13.038000106811523,69.77400207519531 C-23.551000595092773,53.38399887084961 -64.06800079345703,-33.13999938964844 -17.648000717163086,-53.72999954223633z"></path></g><g opacity="1" transform="matrix(1,0,0,1,68.51899719238281,75.47599792480469)"><path stroke-linecap="round" stroke-linejoin="round" fill-opacity="0" stroke="rgb(27,59,134)" stroke-opacity="1" stroke-width="4.451" d=" M-17.648000717163086,-53.731998443603516 C21.336000442504883,-71.0250015258789 63.058998107910156,20.48699951171875 64.06900024414062,40.207000732421875 C52.584999084472656,48.64400100708008 -0.4690000116825104,71.0250015258789 -13.038000106811523,69.77400207519531 C-23.551000595092773,53.38399887084961 -64.06800079345703,-33.138999938964844 -17.648000717163086,-53.731998443603516z"></path></g></g><g transform="matrix(0.9945219159126282,0.10452846437692642,-0.10452846437692642,0.9945219159126282,511.22882080078125,73.95550537109375)" opacity="1" style="display: block;"><g opacity="1" transform="matrix(1,0,0,1,82.61699676513672,116.50800323486328)"><path fill="rgb(250,93,99)" fill-opacity="1" d=" M60.025001525878906,-2.0250000953674316 C57.15299987792969,18.077999114990234 74.36100006103516,49.972999572753906 58.21699905395508,78.37300109863281 C36.685001373291016,116.25700378417969 -53.44200134277344,92.2249984741211 -62.446998596191406,87.81099700927734 C-68.375,84.90399932861328 -74.36100006103516,81.14199829101562 -73.86299896240234,59.04399871826172 C-73.36599731445312,36.94499969482422 -38.310001373291016,5.671000003814697 -36.2760009765625,-19.299999237060547 C-35.042999267578125,-34.457000732421875 -27.30900001525879,-73.16799926757812 -11.244999885559082,-79.90699768066406 C53.41600036621094,-116.25800323486328 62.89500045776367,-22.1299991607666 60.025001525878906,-2.0250000953674316z"></path></g><g opacity="1" transform="matrix(1,0,0,1,40.55400085449219,90.21700286865234)"><path stroke-linecap="round" stroke-linejoin="round" fill-opacity="0" stroke="rgb(27,59,134)" stroke-opacity="1" stroke-width="4.451" d=" M-25.89900016784668,56.12099838256836 C-15.26099967956543,39.03200149536133 -0.43299999833106995,20.4689998626709 0.8700000047683716,4.486000061035156 C2.1029999256134033,-10.670999526977539 9.411999702453613,-50.78900146484375 25.89900016784668,-56.12099838256836"></path></g><g opacity="1" transform="matrix(1,0,0,1,9.85200023651123,193.1199951171875)"><path stroke-linecap="round" stroke-linejoin="round" fill-opacity="0" stroke="rgb(27,59,134)" stroke-opacity="1" stroke-width="4.451" d=" M5.4019999504089355,8.694999694824219 C1.7940000295639038,4.909999847412109 -3.5739998817443848,2.937999963760376 -5.4019999504089355,-8.694999694824219"></path></g><g opacity="1" transform="matrix(1,0,0,1,139.63099670410156,151.1199951171875)"><path stroke-linecap="round" stroke-linejoin="round" fill-opacity="0" stroke="rgb(27,59,134)" stroke-opacity="1" stroke-width="4.451" d=" M-0.004000000189989805,-35.03900146484375 C-2.2309999465942383,-24.121999740600586 4.703000068664551,3.687999963760376 3.552000045776367,16.520000457763672 C2.4000000953674316,29.349000930786133 -4.703000068664551,35.03900146484375 -4.703000068664551,35.03900146484375"></path></g></g><g transform="matrix(0.9945219159126282,0.10452846437692642,-0.10452846437692642,0.9945219159126282,549.4338989257812,74.16818237304688)" opacity="1" style="display: block;"><g opacity="1" transform="matrix(1,0,0,1,24.437000274658203,23.687999725341797)"><path fill="rgb(250,93,99)" fill-opacity="1" d=" M-16.492000579833984,0.7940000295639038 C-16.929000854492188,-8.3149995803833 -9.902999877929688,-16.05299949645996 -0.796999990940094,-16.489999771118164 C8.312000274658203,-16.930999755859375 16.051000595092773,-9.901000022888184 16.490999221801758,-0.7950000166893005 C16.929000854492188,8.314000129699707 9.902000427246094,16.05299949645996 0.7929999828338623,16.489999771118164 C-8.314000129699707,16.930999755859375 -16.054000854492188,9.902999877929688 -16.492000579833984,0.7940000295639038z"></path></g><g opacity="1" transform="matrix(1,0,0,1,21.229999542236328,18.083999633789062)"><path stroke-linecap="round" stroke-linejoin="round" fill-opacity="0" stroke="rgb(27,59,134)" stroke-opacity="1" stroke-width="4.451" d=" M-12.72599983215332,13.631999969482422 C-14.836999893188477,11.005999565124512 -16.165000915527344,7.715000152587891 -16.339000701904297,4.093999862670898 C-16.77899932861328,-5.014999866485596 -9.751999855041504,-12.755000114440918 -0.6430000066757202,-13.192000389099121 C8.465999603271484,-13.633000373840332 16.204999923706055,-6.604000091552734 16.642000198364258,2.505000114440918 C16.77899932861328,5.335000038146973 16.19499969482422,8.029000282287598 15.050999641418457,10.416999816894531"></path></g></g><g transform="matrix(1,0,0,1,422.65399169921875,244.86700439453125)" opacity="1" style="display: block;"><g opacity="1" transform="matrix(1,0,0,1,218.1529998779297,547.3980102539062)"><path fill="rgb(59,55,68)" fill-opacity="1" d=" M-58.380001068115234,-9.9399995803833 C-58.380001068115234,-9.9399995803833 5.604000091552734,248.88499450683594 5.604000091552734,248.88499450683594 C5.604000091552734,248.88499450683594 58.380001068115234,248.88499450683594 58.380001068115234,248.88499450683594 C58.380001068115234,248.88499450683594 22.593000411987305,-248.88499450683594 22.593000411987305,-248.88499450683594 C22.593000411987305,-248.88499450683594 -50.06700134277344,-239.8459930419922 -50.06700134277344,-239.8459930419922 C-50.06700134277344,-239.8459930419922 -58.380001068115234,-9.9399995803833 -58.380001068115234,-9.9399995803833z"></path></g><g opacity="1" transform="matrix(1,0,0,1,192.20199584960938,446.5899963378906)"><path stroke-linecap="round" stroke-linejoin="round" fill-opacity="0" stroke="rgb(27,59,134)" stroke-opacity="1" stroke-width="4.451" d=" M42.66299819946289,-98.3270034790039 C42.66299819946289,-98.3270034790039 38.310001373291016,-158.87899780273438 38.310001373291016,-158.87899780273438 C38.310001373291016,-158.87899780273438 -34.349998474121094,-149.83999633789062 -34.349998474121094,-149.83999633789062 C-34.349998474121094,-149.83999633789062 -42.66299819946289,80.06700134277344 -42.66299819946289,80.06700134277344 C-42.66299819946289,80.06700134277344 -23.18199920654297,158.87899780273438 -23.18199920654297,158.87899780273438"></path></g><g opacity="1" transform="matrix(1,0,0,1,224.9499969482422,645.0670166015625)"><path stroke-linecap="round" stroke-linejoin="round" fill-opacity="0" stroke="rgb(27,59,134)" stroke-opacity="1" stroke-width="4.451" d=" M-41.3489990234375,19.37700080871582 C-41.3489990234375,19.37700080871582 -11.428999900817871,140.41400146484375 -11.428999900817871,140.41400146484375 C-11.428999900817871,140.41400146484375 41.3489990234375,140.41400146484375 41.3489990234375,140.41400146484375 C41.3489990234375,140.41400146484375 21.15999984741211,-140.41299438476562 21.15999984741211,-140.41299438476562"></path></g><g opacity="1" transform="matrix(1,0,0,1,135.6300048828125,543.2020263671875)"><path fill="rgb(59,55,68)" fill-opacity="1" d=" M-60.553001403808594,-247.26100158691406 C-60.21799850463867,-233.80499267578125 -64.25299835205078,260.7179870605469 -64.25299835205078,260.7179870605469 C-64.25299835205078,260.7179870605469 -7.73799991607666,260.7179870605469 -7.73799991607666,260.7179870605469 C-3.364000082015991,236.83299255371094 64.25299835205078,-241.2050018310547 64.25299835205078,-241.2050018310547 C64.25299835205078,-241.2050018310547 -60.888999938964844,-260.718994140625 -60.553001403808594,-247.26100158691406z"></path></g><g opacity="1" transform="matrix(1,0,0,1,128.5749969482422,350.7959899902344)"><path stroke-linecap="round" stroke-linejoin="round" fill-opacity="0" stroke="rgb(27,59,134)" stroke-opacity="1" stroke-width="4.451" d=" M58.505001068115234,-29.83300018310547 C58.505001068115234,-29.83300018310547 62.840999603271484,-60.44200134277344 62.840999603271484,-60.44200134277344 C62.840999603271484,-60.44200134277344 -62.30099868774414,-79.95600128173828 -61.96500015258789,-66.5 C-61.8489990234375,-61.84000015258789 -62.25600051879883,0.4699999988079071 -62.840999603271484,79.95600128173828"></path></g><g opacity="1" transform="matrix(1,0,0,1,155.60699462890625,542.155029296875)"><path stroke-linecap="round" stroke-linejoin="round" fill-opacity="0" stroke="rgb(27,59,134)" stroke-opacity="1" stroke-width="4.451" d=" M-19.374000549316406,135.83200073242188 C-7.665999889373779,54.42900085449219 7.795000076293945,-54.25899887084961 19.374000549316406,-135.83200073242188"></path></g><g opacity="1" transform="matrix(1,0,0,1,93.66899871826172,678.5230102539062)"><path stroke-linecap="round" stroke-linejoin="round" fill-opacity="0" stroke="rgb(27,59,134)" stroke-opacity="1" stroke-width="4.451" d=" M-28.948999404907227,-113.75199890136719 C-29.86199951171875,3.8459999561309814 -30.760000228881836,113.75199890136719 -30.760000228881836,113.75199890136719 C-30.760000228881836,113.75199890136719 25.756999969482422,113.75199890136719 25.756999969482422,113.75199890136719 C26.354000091552734,110.48899841308594 28.134000778198242,98.74199676513672 30.760000228881836,80.89299774169922"></path></g><g opacity="1" transform="matrix(1,0,0,1,0,0)"><path stroke-linecap="round" stroke-linejoin="round" fill-opacity="0" stroke="rgb(27,59,134)" stroke-opacity="1" stroke-width="4.451" d=" M45.18899917602539,792.3839721679688 C45.18899917602539,792.3839721679688 141.04299926757812,792.3839721679688 141.04299926757812,792.3839721679688"></path></g><g opacity="1" transform="matrix(1,0,0,1,0,0)"><path stroke-linecap="round" stroke-linejoin="round" fill-opacity="0" stroke="rgb(27,59,134)" stroke-opacity="1" stroke-width="4.451" d=" M43.71900177001953,809.8709716796875 C43.71900177001953,809.8709716796875 139.572998046875,809.8709716796875 139.572998046875,809.8709716796875"></path></g><g opacity="1" transform="matrix(1,0,0,1,0,0)"><path stroke-linecap="round" stroke-linejoin="round" fill-opacity="0" stroke="rgb(27,59,134)" stroke-opacity="1" stroke-width="4.451" d=" M204.46499633789062,785.7150268554688 C204.46499633789062,785.7150268554688 278.2900085449219,785.7150268554688 278.2900085449219,785.7150268554688"></path></g><g opacity="1" transform="matrix(1,0,0,1,0,0)"><path stroke-linecap="round" stroke-linejoin="round" fill-opacity="0" stroke="rgb(27,59,134)" stroke-opacity="1" stroke-width="4.451" d=" M206.19000244140625,801.9110107421875 C206.19000244140625,801.9110107421875 280.0159912109375,801.9110107421875 280.0159912109375,801.9110107421875"></path></g><g opacity="1" transform="matrix(1,0,0,1,158.74200439453125,163.927001953125)"><path fill="rgb(70,219,200)" fill-opacity="1" d=" M6.923999786376953,-151.9290008544922 C93,-151.12899780273438 109.83799743652344,-2.309000015258789 84.04100036621094,135.906005859375 C70.46600341796875,145.68099975585938 -59.875,153.01199340820312 -82.41400146484375,137.80599975585938 C-104.9520034790039,122.5989990234375 -109.83799743652344,-153.01300048828125 6.923999786376953,-151.9290008544922z"></path></g><g opacity="1" transform="matrix(1,0,0,1,141.57200622558594,153.8990020751953)"><path stroke-linecap="round" stroke-linejoin="round" fill-opacity="0" stroke="rgb(27,59,134)" stroke-opacity="1" stroke-width="4.451" d=" M-30.33099937438965,149.447998046875 C-49.87200164794922,148.36199951171875 -65.802001953125,145.83999633789062 -72.42400360107422,141.37100219726562 C-94.96099853515625,126.16500091552734 -99.8499984741211,-149.447998046875 16.91200065612793,-148.36399841308594 C63.20600128173828,-147.93099975585938 89.4729995727539,-104.68699645996094 99.8499984741211,-43.30400085449219"></path></g><g opacity="1" transform="matrix(1,0,0,1,212.56500244140625,248.97900390625)"><path stroke-linecap="round" stroke-linejoin="round" fill-opacity="0" stroke="rgb(27,59,134)" stroke-opacity="1" stroke-width="4.451" d=" M33.840999603271484,-53.59199905395508 C32.87300109863281,-21.743999481201172 29.15399932861328,11.619999885559082 23.038000106811523,44.39099884033203 C17.677000045776367,48.25 -5.892000198364258,51.729000091552734 -33.840999603271484,53.59199905395508"></path></g><g opacity="1" transform="matrix(1,0,0,1,80.13700103759766,99.36199951171875)"><path fill="rgb(70,219,200)" fill-opacity="1" d=" M16.233999252319336,-62.84299850463867 C60.52000045776367,-54.62699890136719 36.07099914550781,53.58599853515625 24.047000885009766,72.02300262451172 C8.817999839782715,72.625 -50.69900131225586,60.4010009765625 -60.51900100708008,51.58300018310547 C-58.7140007019043,30.340999603271484 -36.50199890136719,-72.6259994506836 16.233999252319336,-62.84299850463867z"></path></g><g opacity="1" transform="matrix(1,0,0,1,54.54600143432617,81.45099639892578)"><path stroke-linecap="round" stroke-linejoin="round" fill-opacity="0" stroke="rgb(27,59,134)" stroke-opacity="1" stroke-width="4.451" d=" M-38.375,62.10499954223633 C-36.571998596191406,40.862998962402344 -14.357999801635742,-62.10499954223633 38.375,-52.31999969482422"></path></g><g opacity="1" transform="matrix(1,0,0,1,85.6760025024414,130.74600219726562)"><path stroke-linecap="round" stroke-linejoin="round" fill-opacity="0" stroke="rgb(27,59,134)" stroke-opacity="1" stroke-width="4.451" d=" M31.916000366210938,-33.564998626708984 C29.308000564575195,-4.5970001220703125 20.777999877929688,24.481000900268555 15.059000015258789,33.249000549316406 C7.068999767303467,33.564998626708984 -13.116000175476074,30.349000930786133 -31.916000366210938,25.947999954223633"></path></g><g opacity="1" transform="matrix(1,0,0,1,63.119998931884766,268.3500061035156)"><path fill="rgb(255,255,255)" fill-opacity="1" d=" M-32.85200119018555,-115.03099822998047 C-37.303001403808594,-101.30899810791016 -52.93299865722656,-42.935001373291016 -51.263999938964844,-26.062000274658203 C-49.595001220703125,-9.192000389099121 24.937999725341797,106.12999725341797 36.430999755859375,115.03099822998047 C41.25299835205078,106.68800354003906 52.93299865722656,85.9209976196289 52.93299865722656,85.9209976196289 C46.62900161743164,76.6500015258789 8.805999755859375,-30.885000228881836 9.175999641418457,-42.564998626708984 C9.54699993133545,-54.244998931884766 23.947999954223633,-93.31300354003906 28.025999069213867,-99.98799896240234"></path></g><g opacity="1" transform="matrix(1,0,0,1,75.33399963378906,199.1009979248047)"><path stroke-linecap="round" stroke-linejoin="round" fill-opacity="0" stroke="rgb(27,59,134)" stroke-opacity="1" stroke-width="4.451" d=" M-6.1579999923706055,36.183998107910156 C-8.237000465393066,28.76799964904785 -9.458000183105469,23.38800048828125 -9.387999534606934,21.239999771118164 C-9.017999649047852,9.5600004196167 5.379000186920166,-29.510000228881836 9.458000183105469,-36.183998107910156"></path></g><g opacity="1" transform="matrix(1,0,0,1,57.07500076293945,277.4800109863281)"><path stroke-linecap="round" stroke-linejoin="round" fill-opacity="0" stroke="rgb(27,59,134)" stroke-opacity="1" stroke-width="4.451" d=" M-41.23500061035156,-100.4540023803711 C-46.79999923706055,-78.41400146484375 -52.624000549316406,-51.2760009765625 -51.571998596191406,-40.63800048828125 C-49.90299987792969,-23.766000747680664 24.628999710083008,91.55500030517578 36.12200164794922,100.4540023803711 C40.94499969482422,92.11100006103516 52.624000549316406,71.34500122070312 52.624000549316406,71.34500122070312 C49.18199920654297,66.28399658203125 36.34700012207031,31.933000564575195 25.458999633789062,-0.11699999868869781"></path></g><g opacity="1" transform="matrix(1,0,0,1,105.83499908447266,849.593017578125)"><path fill="rgb(255,255,255)" fill-opacity="1" d=" M-36.362998962402344,-31.284000396728516 C-36.362998962402344,-31.284000396728516 -37.99700164794922,5.369999885559082 -37.99700164794922,5.369999885559082 C-37.99700164794922,5.369999885559082 -45.00199890136719,31.051000595092773 -45.00199890136719,31.051000595092773 C-45.00199890136719,31.051000595092773 45.00199890136719,31.635000228881836 45.00199890136719,31.635000228881836 C45.00199890136719,31.635000228881836 17.91900062561035,-12.140999794006348 17.91900062561035,-12.140999794006348 C17.91900062561035,-12.140999794006348 18.270000457763672,-31.635000228881836 18.270000457763672,-31.635000228881836"></path></g><g opacity="1" transform="matrix(1,0,0,1,117.20899963378906,841.9039916992188)"><path stroke-linecap="round" stroke-linejoin="round" fill-opacity="0" stroke="rgb(27,59,134)" stroke-opacity="1" stroke-width="4.451" d=" M-27.03499984741211,31.284000396728516 C-27.03499984741211,31.284000396728516 27.03499984741211,31.635000228881836 27.03499984741211,31.635000228881836 C27.03499984741211,31.635000228881836 -0.04500000178813934,-12.142999649047852 -0.04500000178813934,-12.142999649047852 C-0.04500000178813934,-12.142999649047852 0.30300000309944153,-31.635000228881836 0.30300000309944153,-31.635000228881836"></path></g><g opacity="1" transform="matrix(1,0,0,1,58.5620002746582,841.7860107421875)"><path stroke-linecap="round" stroke-linejoin="round" fill-opacity="0" stroke="rgb(27,59,134)" stroke-opacity="1" stroke-width="4.451" d=" M4.320000171661377,-31.16900062561035 C4.320000171661377,-31.16900062561035 2.686000108718872,5.486999988555908 2.686000108718872,5.486999988555908 C2.686000108718872,5.486999988555908 -4.320000171661377,31.167999267578125 -4.320000171661377,31.167999267578125"></path></g><g opacity="1" transform="matrix(1,0,0,1,282.4429931640625,842.31298828125)"><path fill="rgb(255,255,255)" fill-opacity="1" d=" M-57.62699890136719,-35.231998443603516 C-57.62699890136719,-35.231998443603516 -53.2140007019043,-16.922000885009766 -53.2140007019043,-16.922000885009766 C-53.2140007019043,-16.922000885009766 -60.571998596191406,35.55799865722656 -60.571998596191406,35.55799865722656 C-60.571998596191406,35.55799865722656 60.571998596191406,34.577999114990234 60.571998596191406,34.577999114990234 C60.571998596191406,34.577999114990234 -7.27400016784668,-10.873000144958496 -7.27400016784668,-10.873000144958496 C-7.27400016784668,-10.873000144958496 -8.581999778747559,-35.55799865722656 -8.581999778747559,-35.55799865722656"></path></g><g opacity="1" transform="matrix(1,0,0,1,267.9230041503906,814.7039794921875)"><path stroke-linecap="round" stroke-linejoin="round" fill-opacity="0" stroke="rgb(27,59,134)" stroke-opacity="1" stroke-width="4.451" d=" M0.6549999713897705,12.343999862670898 C0.6549999713897705,12.343999862670898 -0.6549999713897705,-12.343999862670898 -0.6549999713897705,-12.343999862670898"></path></g><g opacity="1" transform="matrix(1,0,0,1,275.85400390625,838.0819702148438)"><path stroke-linecap="round" stroke-linejoin="round" fill-opacity="0" stroke="rgb(27,59,134)" stroke-opacity="1" stroke-width="4.451" d=" M-57.630001068115234,-35.39500045776367 C-57.630001068115234,-35.39500045776367 -53.21699905395508,-17.084999084472656 -53.21699905395508,-17.084999084472656 C-53.21699905395508,-17.084999084472656 -60.571998596191406,35.39500045776367 -60.571998596191406,35.39500045776367 C-60.571998596191406,35.39500045776367 60.571998596191406,34.41600036621094 60.571998596191406,34.41600036621094 C60.571998596191406,34.41600036621094 14.300999641418457,3.4179999828338623 14.300999641418457,3.4179999828338623"></path></g></g><g transform="matrix(0.9945219159126282,0.10452846437692642,-0.10452846437692642,0.9945219159126282,550.1238403320312,182.87380981445312)" opacity="1" style="display: block;"><g opacity="1" transform="matrix(1,0,0,1,35.11800003051758,54.27299880981445)"><path fill="rgb(255,255,255)" fill-opacity="1" d=" M-26.180999755859375,-44.176998138427734 C-24.5,-35.819000244140625 -17.805999755859375,10.27299976348877 -18.30299949645996,37.14699935913086 C-10.291000366210938,44.176998138427734 20.474000930786133,43.207000732421875 25.76799964904785,36.30400085449219 C24.601999282836914,25.36199951171875 23.584999084472656,-1.5959999561309814 26.180999755859375,-8.753999710083008"></path></g><g opacity="1" transform="matrix(1,0,0,1,54.79399871826172,64.29499816894531)"><path stroke-linecap="round" stroke-linejoin="round" fill-opacity="0" stroke="rgb(27,59,134)" stroke-opacity="1" stroke-width="4.451" d=" M1.6080000400543213,20.635000228881836 C0.44200000166893005,9.696000099182129 -1.6080000400543213,-13.477999687194824 0.9879999756813049,-20.635000228881836"></path></g><g opacity="1" transform="matrix(1,0,0,1,23.60099983215332,66.58300018310547)"><path stroke-linecap="round" stroke-linejoin="round" fill-opacity="0" stroke="rgb(27,59,134)" stroke-opacity="1" stroke-width="4.451" d=" M-13.949999809265137,-24.444000244140625 C-12.329000473022461,-9.520999908447266 -11.043999671936035,6.857999801635742 -11.270000457763672,19.18899917602539 C-6.955999851226807,22.976999282836914 3.9660000801086426,24.444000244140625 13.949999809265137,23.909000396728516"></path></g><g opacity="1" transform="matrix(1,0,0,1,5.456999778747559,10.687999725341797)"><path stroke-linecap="round" stroke-linejoin="round" fill-opacity="0" stroke="rgb(27,59,134)" stroke-opacity="1" stroke-width="4.451" d=" M-1.00600004196167,-6.236999988555908 C-0.5860000252723694,-4.145999908447266 0.14800000190734863,0.3109999895095825 1.00600004196167,6.236999988555908"></path></g></g><g transform="matrix(0.9945219159126282,0.10452846437692642,-0.10452846437692642,0.9945219159126282,559.2496948242188,103.0403823852539)" opacity="1" style="display: block;"><g opacity="1" transform="matrix(1,0,0,1,50.07400131225586,65.125)"><path fill="rgb(255,255,255)" fill-opacity="1" d=" M-48.132999420166016,2.316999912261963 C-49.82400131225586,-32.803001403808594 -29.648000717163086,-62.3120002746582 -3.063999891281128,-63.59299850463867 C23.518999099731445,-64.8740005493164 46.44300079345703,-37.439998626708984 48.13399887084961,-2.316999912261963 C49.82500076293945,32.80500030517578 29.645000457763672,62.314998626708984 3.063999891281128,63.59299850463867 C-23.518999099731445,64.8740005493164 -46.44200134277344,37.439998626708984 -48.132999420166016,2.316999912261963z"></path></g><g opacity="1" transform="matrix(1,0,0,1,59.36899948120117,104.45800018310547)"><path stroke-linecap="round" stroke-linejoin="round" fill-opacity="0" stroke="rgb(27,59,134)" stroke-opacity="1" stroke-width="4.451" d=" M32.209999084472656,-20.253000259399414 C25.833999633789062,2.4860000610351562 9.654000282287598,18.926000595092773 -10.038999557495117,19.87299919128418 C-17.900999069213867,20.253000259399414 -25.444000244140625,18.1200008392334 -32.209999084472656,14.019000053405762"></path></g><g opacity="1" transform="matrix(1,0,0,1,91.53600311279297,42.25400161743164)"><path stroke-linecap="round" stroke-linejoin="round" fill-opacity="0" stroke="rgb(27,59,134)" stroke-opacity="1" stroke-width="4.451" d=" M-2.1510000228881836,-8.520000457763672 C-0.15700000524520874,-3.2079999446868896 1.3109999895095825,2.510999917984009 2.1510000228881836,8.520000457763672"></path></g></g><g transform="matrix(0.9945219159126282,0.10452846437692642,-0.10452846437692642,0.9945219159126282,553.5873413085938,94.33783721923828)" opacity="1" style="display: block;"><g opacity="1" transform="matrix(1,0,0,1,52.893001556396484,47.45800018310547)"><path fill="rgb(250,93,99)" fill-opacity="1" d=" M1,-39.209999084472656 C-25.58300018310547,-37.92900085449219 -45.76300048828125,-8.418000221252441 -44.06999969482422,26.704999923706055 C-43.8489990234375,31.329999923706055 -43.2400016784668,35.80799865722656 -42.31999969482422,40.117000579833984 C-33.68600082397461,27.145999908447266 -22.23200035095215,13.557000160217285 -14.572999954223633,5.942999839782715 C2.7320001125335693,5.230999946594238 26.863000869750977,-0.18700000643730164 45.76300048828125,-5.964000225067139 C36.87200164794922,-26.50200080871582 19.884000778198242,-40.11800003051758 1,-39.209999084472656z"></path></g><g opacity="1" transform="matrix(1,0,0,1,36.5629997253418,63.9640007019043)"><path stroke-linecap="round" stroke-linejoin="round" fill-opacity="0" stroke="rgb(27,59,134)" stroke-opacity="1" stroke-width="4.451" d=" M-30.190000534057617,-14.456000328063965 C-31.542999267578125,-7.931000232696533 -32.112998962402344,-0.9739999771118164 -31.767000198364258,6.215000152587891 C-31.54599952697754,10.84000015258789 -30.937000274658203,15.319000244140625 -30.017000198364258,19.628000259399414 C-21.3799991607666,6.65500020980835 -9.925999641418457,-6.934999942779541 -2.2699999809265137,-14.54699993133545 C7.695000171661377,-14.956999778747559 19.92300033569336,-16.92799949645996 32.112998962402344,-19.628000259399414"></path></g><g opacity="1" transform="matrix(1,0,0,1,6.835999965667725,47.42100143432617)"><path stroke-linecap="round" stroke-linejoin="round" fill-opacity="0" stroke="rgb(27,59,134)" stroke-opacity="1" stroke-width="4.451" d=" M0.8029999732971191,-3.181999921798706 C0.18400000035762787,-1.1130000352859497 -0.3529999852180481,1.0110000371932983 -0.8029999732971191,3.181999921798706"></path></g><g opacity="1" transform="matrix(1,0,0,1,50.9640007019043,24.344999313354492)"><path stroke-linecap="round" stroke-linejoin="round" fill-opacity="0" stroke="rgb(27,59,134)" stroke-opacity="1" stroke-width="4.451" d=" M43.32500076293945,14.258999824523926 C34.435001373291016,-6.2789998054504395 17.445999145507812,-19.893999099731445 -1.4390000104904175,-18.986000061035156 C-20.770000457763672,-18.054000854492188 -36.715999603271484,-2.196000099182129 -43.32500076293945,19.893999099731445"></path></g></g><g transform="matrix(0.9945219159126282,0.10452846437692642,-0.10452846437692642,0.9945219159126282,539.0816650390625,155.1748504638672)" opacity="1" style="display: block;"><g opacity="1" transform="matrix(1,0,0,1,17.458999633789062,18.98900032043457)"><path fill="rgb(255,255,255)" fill-opacity="1" d=" M9.670999526977539,9.416999816894531 C7.785999774932861,10.883999824523926 5.442999839782715,11.805000305175781 2.875,11.930000305175781 C-3.756999969482422,12.248000144958496 -9.395000457763672,7.129000186920166 -9.713000297546387,0.4950000047683716 C-10.034000396728516,-6.139999866485596 -4.913000106811523,-11.774999618530273 1.718000054359436,-12.095999717712402 C4.86899995803833,-12.248000144958496 7.796000003814697,-11.170000076293945 10.034000396728516,-9.289999961853027"></path></g><g opacity="1" transform="matrix(1,0,0,1,14.484999656677246,16.698999404907227)"><path stroke-linecap="round" stroke-linejoin="round" fill-opacity="0" stroke="rgb(27,59,134)" stroke-opacity="1" stroke-width="4.451" d=" M9.670999526977539,9.416999816894531 C7.783999919891357,10.883999824523926 5.442999839782715,11.803999900817871 2.875,11.925999641418457 C-3.756999969482422,12.246999740600586 -9.395000457763672,7.125999927520752 -9.713000297546387,0.49399998784065247 C-10.034000396728516,-6.139999866485596 -4.913000106811523,-11.777000427246094 1.718000054359436,-12.095000267028809 C4.86899995803833,-12.246999740600586 7.796000003814697,-11.17199993133545 10.034000396728516,-9.289999961853027"></path></g></g><g transform="matrix(0.9945219159126282,0.10452846437692642,-0.10452846437692642,0.9945219159126282,592.2240600585938,157.52561950683594)" opacity="1" style="display: block;"><g opacity="1" transform="matrix(1,0,0,1,5.936999797821045,7.327000141143799)"><path fill="rgb(27,59,134)" fill-opacity="1" d=" M-4.014999866485596,0.1940000057220459 C-4.198999881744385,-3.6559998989105225 -2.552999973297119,-6.86299991607666 -0.3370000123977661,-6.96999979019165 C1.88100004196167,-7.077000141143799 3.828000068664551,-4.040999889373779 4.01200008392334,-0.1940000057220459 C4.198999881744385,3.6549999713897705 2.552999973297119,6.86299991607666 0.33500000834465027,6.96999979019165 C-1.88100004196167,7.077000141143799 -3.828000068664551,4.044000148773193 -4.014999866485596,0.1940000057220459z"></path></g><g opacity="1" transform="matrix(1,0,0,1,31.381999969482422,19.152999877929688)"><path stroke-linecap="round" stroke-linejoin="round" fill-opacity="0" stroke="rgb(27,59,134)" stroke-opacity="1" stroke-width="4.451" d=" M-6.353000164031982,-9.54800033569336 C-5.783999919891357,-3.634000062942505 -2.371000051498413,6.573999881744385 6.353000164031982,9.54800033569336"></path></g><g opacity="1" transform="matrix(1,0,0,1,8.263999938964844,45.441001892089844)"><path stroke-linecap="round" stroke-linejoin="round" fill-opacity="0" stroke="rgb(27,59,134)" stroke-opacity="1" stroke-width="4.451" d=" M-3.7929999828338623,-4.578000068664551 C-3.812999963760376,-1.0889999866485596 -0.9259999990463257,4.052999973297119 3.813999891281128,4.578000068664551"></path></g></g><g style="display: block;" transform="matrix(1,0,0,1,773.072998046875,192.13101196289062)" opacity="1"><g opacity="1" transform="matrix(1,0,0,1,78.40699768066406,43.28099822998047)"><path fill="rgb(234,239,255)" fill-opacity="1" d=" M-78.15699768066406,-43.03099822998047 C-78.15699768066406,-43.03099822998047 78.15699768066406,-43.03099822998047 78.15699768066406,-43.03099822998047 C78.15699768066406,-43.03099822998047 78.15699768066406,43.03099822998047 78.15699768066406,43.03099822998047 C78.15699768066406,43.03099822998047 -78.15699768066406,43.03099822998047 -78.15699768066406,43.03099822998047 C-78.15699768066406,43.03099822998047 -78.15699768066406,-43.03099822998047 -78.15699768066406,-43.03099822998047z"></path></g></g><g transform="matrix(1,0,0,1,760.4110107421875,181.0970001220703)" opacity="1" style="display: block;"><g opacity="1" transform="matrix(1,0,0,1,82.60700225830078,47.483001708984375)"><path stroke-linecap="round" stroke-linejoin="round" fill-opacity="0" stroke="rgb(27,59,134)" stroke-opacity="1" stroke-width="4.451" d=" M-20.41699981689453,-43.03200149536133 C-20.41699981689453,-43.03200149536133 78.15599822998047,-43.03200149536133 78.15599822998047,-43.03200149536133 C78.15599822998047,-43.03200149536133 78.15599822998047,43.03200149536133 78.15599822998047,43.03200149536133 C78.15599822998047,43.03200149536133 -78.15599822998047,43.03200149536133 -78.15599822998047,43.03200149536133 C-78.15599822998047,43.03200149536133 -78.15599822998047,-14.87600040435791 -78.15599822998047,-14.87600040435791"></path></g><g opacity="1" transform="matrix(1,0,0,1,126.56900024414062,51.79199981689453)"><path stroke-linecap="round" stroke-linejoin="round" fill-opacity="0" stroke="rgb(27,59,134)" stroke-opacity="1" stroke-width="4.451" d=" M-16.62299919128418,-18.604999542236328 C-16.62299919128418,-18.604999542236328 16.62299919128418,18.604999542236328 16.62299919128418,18.604999542236328"></path></g><g opacity="1" transform="matrix(1,0,0,1,56.54399871826172,32.6349983215332)"><path stroke-linecap="round" stroke-linejoin="round" fill-opacity="0" stroke="rgb(27,59,134)" stroke-opacity="1" stroke-width="4.451" d=" M-25.743000030517578,-14.185999870300293 C-25.743000030517578,-14.185999870300293 25.743000030517578,14.185999870300293 25.743000030517578,14.185999870300293"></path></g><g opacity="1" transform="matrix(1,0,0,1,121.11100006103516,27.145999908447266)"><path stroke-linecap="round" stroke-linejoin="round" fill-opacity="0" stroke="rgb(27,59,134)" stroke-opacity="1" stroke-width="4.451" d=" M-37.63600158691406,20.503999710083008 C-37.63600158691406,20.503999710083008 37.63600158691406,-20.503999710083008 37.63600158691406,-20.503999710083008"></path></g><g opacity="1" transform="matrix(1,0,0,1,30.73699951171875,61.62699890136719)"><path stroke-linecap="round" stroke-linejoin="round" fill-opacity="0" stroke="rgb(27,59,134)" stroke-opacity="1" stroke-width="4.451" d=" M-25.704999923706055,28.7549991607666 C-25.704999923706055,28.7549991607666 25.704999923706055,-28.7549991607666 25.704999923706055,-28.7549991607666"></path></g></g><g transform="matrix(1,0,0,1,900.3130493164062,162.11399841308594)" opacity="1" style="display: block;"><g opacity="1" transform="matrix(1,0,0,1,26.884000778198242,26.882999420166016)"><path fill="rgb(250,93,99)" fill-opacity="1" d=" M-26.634000778198242,0 C-26.634000778198242,-14.708999633789062 -14.710000038146973,-26.632999420166016 -0.0010000000474974513,-26.632999420166016 C14.708000183105469,-26.632999420166016 26.634000778198242,-14.708999633789062 26.634000778198242,0 C26.634000778198242,14.708999633789062 14.708000183105469,26.632999420166016 -0.0010000000474974513,26.632999420166016 C-14.710000038146973,26.632999420166016 -26.634000778198242,14.708999633789062 -26.634000778198242,0z"></path></g></g><g transform="matrix(1,0,0,1,891.9219970703125,153.72300720214844)" opacity="1" style="display: block;"><g opacity="1" transform="matrix(1,0,0,1,30.54599952697754,31.083999633789062)"><path stroke-linecap="round" stroke-linejoin="round" fill-opacity="0" stroke="rgb(27,59,134)" stroke-opacity="1" stroke-width="4.451" d=" M26.09600067138672,7.519999980926514 C22.85099983215332,18.569000244140625 12.635000228881836,26.632999420166016 0.5360000133514404,26.632999420166016 C-14.17300033569336,26.632999420166016 -26.09600067138672,14.708999633789062 -26.09600067138672,0 C-26.09600067138672,-14.708999633789062 -14.17300033569336,-26.632999420166016 0.5360000133514404,-26.632999420166016"></path></g></g></g></svg>