<!DOCTYPE svg PUBLIC "-//W3C//DTD SVG 1.1//EN" "http://www.w3.org/Graphics/SVG/1.1/DTD/svg11.dtd">
<!-- Uploaded to: SVG Repo, www.svgrepo.com, Transformed by: SVG Repo Mixer Tools -->
<svg width="800px" height="800px" viewBox="0 0 48 48" xmlns="http://www.w3.org/2000/svg" fill="#ffff" stroke="#ffff">
<g id="SVGRepo_bgCarrier" stroke-width="0"/>
<g id="SVGRepo_tracerCarrier" stroke-linecap="round" stroke-linejoin="round"/>
<g id="SVGRepo_iconCarrier"> <g id="Layer_2" data-name="Layer 2"> <g id="invisible_box" data-name="invisible box"> <rect width="48" height="48" fill="none"/> </g> <g id="Layer_6" data-name="Layer 6"> <g> <path d="M33,32A13,13,0,1,0,20,19,13,13,0,0,0,33,32Zm0-22a9,9,0,1,1-9,9A9,9,0,0,1,33,10Z"/> <path d="M36,23a2,2,0,0,0,2-2V17a2,2,0,0,0-4,0v4A2,2,0,0,0,36,23Z"/> <path d="M30,23a2,2,0,0,0,2-2V17a2,2,0,0,0-4,0v4A2,2,0,0,0,30,23Z"/> <path d="M42,40H12V33.7A8,8,0,0,0,18,26V22a2,2,0,0,0-2-2H15V16a2,2,0,0,0-4,0v4H9V16a2,2,0,0,0-4,0v4H4a2,2,0,0,0-2,2v4a8,8,0,0,0,6,7.7V40a4,4,0,0,0,4,4H42a2,2,0,0,0,0-4ZM6,26V24h8v2a4,4,0,0,1-8,0Z"/> </g> </g> </g> </g>
</svg>